<svg xmlns="http://www.w3.org/2000/svg" width="512" height="512" viewBox="0 0 32 32" shape-rendering="crispEdges">
  <rect width="32" height="32" fill="#1b1d23"/>
  <!-- checkerboard canvas -->
  <g>
    <rect x="4" y="4" width="24" height="24" fill="#2c2f38"/>
    <rect x="4" y="4" width="4" height="4" fill="#343845"/><rect x="12" y="4" width="4" height="4" fill="#343845"/><rect x="20" y="4" width="4" height="4" fill="#343845"/>
    <rect x="8" y="8" width="4" height="4" fill="#343845"/><rect x="16" y="8" width="4" height="4" fill="#343845"/><rect x="24" y="8" width="4" height="4" fill="#343845"/>
  </g>
  <!-- pixel art heart -->
  <g fill="#e0596b">
    <rect x="9" y="12" width="2" height="2"/><rect x="11" y="12" width="2" height="2"/>
    <rect x="15" y="12" width="2" height="2"/><rect x="17" y="12" width="2" height="2"/>
    <rect x="9" y="14" width="10" height="2"/>
    <rect x="10" y="16" width="8" height="2"/>
    <rect x="11" y="18" width="6" height="2"/>
    <rect x="13" y="20" width="2" height="2"/>
  </g>
  <!-- pencil -->
  <g>
    <rect x="20" y="18" width="2" height="2" fill="#ffcd75"/>
    <rect x="21" y="19" width="2" height="2" fill="#5b8cff"/>
    <rect x="22" y="20" width="2" height="2" fill="#5b8cff"/>
    <rect x="23" y="21" width="2" height="2" fill="#41a6f6"/>
    <rect x="24" y="22" width="2" height="2" fill="#f4f4f4"/>
  </g>
</svg>
